                          http://www.imdb.com/title/tt2480566/
                  http://en.wikipedia.org/wiki/Chitrangada:_The_Crowning_Wish

                Plot:

Rudra Chatterjee has spent his life going against society convention. As a young man he defied his father's wishes to become an engineer and became a choreographer instead. As he prepares with his team to stage Tagore's Chitrangada, he meets Partho, Jishu Sengupta who is a drug-addict percussionist introduced to the team by the main dancer Kasturi Raima Sen. Soon, Rudra develops a chemistry with Partho and they both get involved in a passionate love affair. During the course of their togetherness they decide to adopt a child. But there is one problem: same-sex couples are not permitted to adopt children. Hence Rudra decides to go through a gender reassignment treatment to embrace the womanhood he longs for. But will this surgery change his life and fulfill all his long-cherished dreams


              Awards: 

Despite being unsuccessful at the Box Office, it managed to win the Special Jury Award at the 60th National Film Awards


               Info:

              General

Unique ID : 226532597881931830879103585026815525775 (0xAA6C9763A2A5124DB2C3C2662D7F838F)
Complete name : Chitrangada(2012) 720p hdrip~bengali~SaNRiM~.mkv
Format : Matroska
Format version : Version 4 / Version 2
File size : 1.50 GiB
Duration : 2h 11mn
Overall bit rate : 1 631 Kbps
Encoded date : UTC 2013-06-03 11:22:50
Writing application : mkvmerge v6.2.0 ('Promised Land') built on Apr 28 2013 12:22:01
Writing library : libebml v1.3.0 + libmatroska v1.4.0



               Video

ID : 1
Format : AVC
Format/Info : Advanced Video Codec
Format profile : High@L3.1
Format settings, CABAC : Yes
Format settings, ReFrames : 4 frames
Codec ID : V_MPEG4/ISO/AVC
Duration : 2h 11mn
Bit rate : 1 500 Kbps
Width : 1 280 pixels
Height : 544 pixels
Display aspect ratio : 2.35:1
Frame rate mode : Constant
Frame rate : 23.976 fps
Color space : YUV
Chroma subsampling : 4:2:0
Bit depth : 8 bits
Scan type : Progressive
Bits/(Pixel*Frame) : 0.090
Stream size : 1.35 GiB (90%)
Writing library : x264 core 125 r2200 999b753
Encoding settings : cabac=1 / ref=3 / deblock=1:-2:-1 / analyse=0x3:0x113 / me=umh / subme=5 / psy=1 / psy_rd=1.00:0.00 / mixed_ref=1 / me_range=12 / chroma_me=1 / trellis=1 / 8x8dct=1 / cqm=0 / deadzone=21,11 / fast_pskip=1 / chroma_qp_offset=0 / threads=6 / lookahead_threads=1 / sliced_threads=0 / nr=0 / decimate=1 / interlaced=0 / bluray_compat=0 / constrained_intra=0 / bframes=16 / b_pyramid=2 / b_adapt=1 / b_bias=0 / direct=3 / weightb=1 / open_gop=0 / weightp=2 / keyint=240 / keyint_min=23 / scenecut=40 / intra_refresh=0 / rc=2pass / mbtree=0 / bitrate=1500 / ratetol=1.0 / qcomp=0.60 / qpmin=10 / qpmax=51 / qpstep=4 / cplxblur=20.0 / qblur=0.5 / ip_ratio=1.40 / pb_ratio=1.30 / aq=2:1.00
Language : English
Default : Yes
Forced : No


                Audio

ID : 3
Format : AC-3
Format/Info : Audio Coding 3
Mode extension : CM (complete main)
Format settings, Endianness : Big
Codec ID : A_AC3
Duration : 2h 11mn
Bit rate mode : Constant
Bit rate : 128 Kbps
Channel(s) : 6 channels
Channel positions : Front: L C R, Side: L R, LFE
Sampling rate : 48.0 KHz
Bit depth : 16 bits
Compression mode : Lossy
Stream size : 120 MiB (8%)
Language : Bengali
Default : Yes
Forced : No


               Text

ID : 2
Format : VobSub
Muxing mode : zlib
Codec ID : S_VOBSUB
Codec ID/Info : The same subtitle format used on DVDs
Language : English
Default : Yes
Forced : No


Screen shoots:

 
http://i.imgbox.com/abjws2oZ.png 
http://i.imgbox.com/adxmLO3d.png 
http://i.imgbox.com/adp0YIqx.png 
http://i.imgbox.com/addyEVQM.png 
http://i.imgbox.com/adrGpML5.png 
http://i.imgbox.com/abcK3Jlf.png 
http://i.imgbox.com/advUaJE6.png 
http://i.imgbox.com/abqh44jN.png 
http://i.imgbox.com/acx8Xcus.png 
http://i.imgbox.com/adbsbkGb.png 
http://i.imgbox.com/acpVADzV.png 
http://i.imgbox.com/adkMs8yH.png 
http://i.imgbox.com/abvSvIF3.png 
http://i.imgbox.com/adscz8RN.png 
http://i.imgbox.com/acwEjMB5.png 
http://i.imgbox.com/acsHUbr6.png 
http://i.imgbox.com/adolQBI1.png 
http://i.imgbox.com/acbCVhlq.png 
http://i.imgbox.com/acumi51R.png 
http://i.imgbox.com/acoEifoN.png 
http://i.imgbox.com/adbtXYxX.png 
http://i.imgbox.com/adjM4RcZ.png 
http://i.imgbox.com/acha2Sg4.png


For Sample Click here:


Spacial thanks to Team DBU


                   If you like my work please comment
                       Any request? Just PM me
                    Please seed long after download
                         Thank you & enjoy